<?xml version="1.0" standalone="no"?>
<!DOCTYPE svg PUBLIC "-//W3C//DTD SVG 1.1//EN" "http://www.w3.org/Graphics/SVG/1.1/DTD/svg11.dtd" >
<svg xmlns="http://www.w3.org/2000/svg">
<metadata>Generated by IcoMoon</metadata>
<defs>
<font id="zkicon" horiz-adv-x="1024">
<font-face units-per-em="1024" ascent="960" descent="-64" />
<missing-glyph horiz-adv-x="1024" />
<glyph unicode="&#x20;" horiz-adv-x="512" d="" />
<glyph unicode="&#xe900;" glyph-name="add" d="M832 384h-256v-256c0-35.328-28.672-64-64-64-35.392 0-64 28.672-64 64v256h-256c-35.392 0-64 28.672-64 64s28.608 64 64 64h256v256c0 35.328 28.608 64 64 64 35.328 0 64-28.672 64-64v-256h256c35.328 0 64-28.672 64-64s-28.672-64-64-64z" />
<glyph unicode="&#xe901;" glyph-name="application" d="M472.617 356.096h-315.085c-29.010 0-52.511-23.511-52.511-52.511v-315.075c0-29.010 23.501-52.521 52.511-52.521h315.085c29 0 52.5 23.511 52.5 52.521v315.075c0 29-23.501 52.511-52.5 52.511zM446.351 67.277c0-29-23.511-52.511-52.511-52.511h-157.532c-29 0-52.511 23.511-52.511 52.511v157.542c0 29 23.511 52.521 52.511 52.521h157.532c29.010 0 52.511-23.521 52.511-52.521v-157.542zM971.479 854.979h-315.064c-29.010 0-52.511-23.511-52.511-52.521v-315.075c0-29 23.501-52.511 52.511-52.511h315.075c29 0 52.521 23.511 52.521 52.511v315.075c-0.010 29.010-23.532 52.521-52.531 52.521zM945.224 566.159c0-29.010-23.501-52.521-52.5-52.521h-157.542c-29 0-52.521 23.511-52.521 52.521v157.542c0 29 23.521 52.511 52.521 52.511h157.542c29 0 52.5-23.511 52.5-52.511v-157.542zM971.479 356.096h-315.064c-29.010 0-52.511-23.511-52.511-52.511v-315.075c0-29.010 23.501-52.521 52.511-52.521h315.075c29 0 52.521 23.511 52.521 52.521v315.075c-0.010 29-23.532 52.511-52.531 52.511zM945.224 67.277c0-29-23.501-52.511-52.5-52.511h-157.542c-29 0-52.521 23.511-52.521 52.511v157.542c0 29 23.521 52.521 52.521 52.521h157.542c29 0 52.5-23.521 52.5-52.521v-157.542zM472.617 960h-420.106c-29 0-52.511-23.511-52.511-52.511v-420.096c0-29 23.511-52.511 52.511-52.511h420.106c29 0 52.5 23.511 52.5 52.511v420.096c0 29-23.501 52.511-52.5 52.511zM446.351 566.159c0-29.010-23.511-52.521-52.511-52.521h-262.564c-29.010 0-52.511 23.511-52.511 52.521v262.564c0 29 23.511 52.511 52.511 52.511h262.564c29.010 0 52.511-23.511 52.511-52.511v-262.564z" />
<glyph unicode="&#xe902;" glyph-name="btn_dissuss" horiz-adv-x="1035" d="M1019.214 501.373c-0.585 45.962-9.865 89.132-27.838 129.497-17.97 40.366-42.124 75.427-72.466 105.188-30.346 29.757-65.842 53.179-106.495 70.271-40.655 17.087-83.959 25.339-129.915 24.749s-89.26-9.722-129.914-27.4c-40.654-17.679-76.006-41.695-106.052-72.042s-53.618-65.854-70.702-106.515c-17.089-40.66-25.335-83.974-24.746-129.937 0.586-44.197 8.985-85.149 25.188-122.864 16.199-37.715 36.971-70.713 62.302-98.999 8.252-8.838 13.259-18.415 15.028-28.729 1.766-10.314-2.36-18.414-12.373-24.308-17.087-9.428-40.063-16.797-68.935-22.099-2.356-0.588-0.885-2.207 4.417-4.863 5.306-2.65 14.289-5.746 26.958-9.281 12.668-3.531 28.719-7.068 48.164-10.606 19.444-3.536 42.424-6.483 68.935-8.839 47.136-4.716 85.577-6.334 115.333-4.863 29.752 1.476 55.825 3.684 78.214 6.63 43.010 4.716 83.221 16.649 120.636 35.801 37.413 19.149 69.815 43.607 97.212 73.364 27.4 29.757 48.906 63.935 64.519 102.535 15.611 38.602 23.121 79.701 22.531 123.309zM592.663 453.643c-10.897-11.199-24.302-16.797-40.212-16.797s-29.31 5.597-40.212 16.797c-10.897 11.194-16.347 24.455-16.347 39.776s5.449 28.581 16.347 39.776c10.901 11.195 24.302 16.796 40.212 16.796s29.314-5.601 40.212-16.796c10.902-11.195 16.351-24.455 16.351-39.776s-5.448-28.582-16.351-39.776zM846.503 453.643c-10.902-10.609-24.012-15.911-39.33-15.911-15.32 0-28.277 5.303-38.885 15.911-10.607 10.605-15.909 23.57-15.909 38.891s5.303 28.434 15.909 39.333c10.608 10.904 23.565 16.354 38.885 16.354 15.318 0 28.427-5.45 39.33-16.354 10.897-10.899 16.346-24.011 16.346-39.333s-5.448-28.286-16.346-38.891zM288.529 163.712c12.372 14.142 22.536 30.496 30.488 49.058 7.956 18.563 11.931 38.452 11.931 59.666 0 22.393-4.121 43.607-12.373 63.64-8.247 20.038-19.734 37.567-34.467 52.598-14.728 15.026-31.96 26.959-51.699 35.797-19.74 8.839-40.801 13.26-63.191 13.26-22.975 0-44.481-4.126-64.514-12.374-20.029-8.253-37.56-19.743-52.585-34.474s-26.954-31.97-35.791-51.709c-8.836-19.742-13.258-40.807-13.258-63.201 0-21.804 3.831-42.137 11.488-60.989 7.661-18.859 18.265-35.654 31.818-50.387 13.553-14.736 29.461-26.667 47.725-35.8 18.265-9.134 37.999-14.879 59.214-17.235l15.903-1.77c5.306-0.585 11.050-1.028 17.236-1.323 6.187-0.296 13.405-0.589 21.653-0.884 8.247-0.296 18.263-0.443 30.046-0.443 22.39 0 39.917-0.589 52.584-1.766 12.669-1.18 25.778-0.296 39.331 2.651-3.536 0.589-7.366 2.208-11.492 4.86-4.121 2.655-8.099 5.602-11.93 8.843s-7.51 6.478-11.047 9.719c-3.536 3.242-6.482 5.454-8.836 6.63-4.715 2.946-6.63 6.778-5.748 11.495 0.886 4.708 3.389 9.425 7.515 14.137z" />
<glyph unicode="&#xe903;" glyph-name="btn_note" horiz-adv-x="1025" d="M292.622 220.697l355.626 361.257-181.959 185.854-366.084-366.302-3.54-22.345 187.018-159.322 8.939 0.858zM710.83 645.394l126.444 128.466 8.15 51.253-135.533 134.887-54.215-2.737-133.151-133.157 188.305-178.712zM40.666 128.996l158.239 68.131-129.188 105.978-53.493-128.255-16.224-59.328 40.666 13.474zM51.328 38.091c-28.112 0-50.967-22.849-50.967-51.035 0-28.118 22.856-51.042 50.967-51.042h922.195c28.193 0 51.049 22.924 51.049 51.042 0 28.186-22.856 51.035-51.049 51.035h-922.195zM973.019 166.053c28.486 0 51.553 23.073 51.553 51.546 0 28.404-23.073 51.546-51.553 51.546h-511.489c-28.404 0-51.478-23.142-51.478-51.546 0-28.479 23.073-51.546 51.478-51.546h511.489z" />
<glyph unicode="&#xe904;" glyph-name="circle" d="M512 960c-282.784 0-512-229.216-512-512s229.216-512 512-512 512 229.216 512 512-229.216 512-512 512zM512 64c-212.064 0-384 171.936-384 384s171.936 384 384 384c212.064 0 384-171.936 384-384s-171.936-384-384-384z" />
<glyph unicode="&#xe905;" glyph-name="class" d="M197.693 924.652h-148.265c-27.3 0-49.428-22.118-49.428-49.408v-864.707c0-27.29 22.129-49.418 49.428-49.418h148.265c27.3 0 49.428 22.129 49.428 49.418v864.707c0 27.29-22.129 49.408-49.428 49.408zM172.984 72.294c0-20.47-16.599-37.059-37.069-37.059h-24.719c-20.47 0-37.069 16.589-37.069 37.059v741.171c0 20.47 16.599 37.059 37.069 37.059h24.719c20.47 0 37.069-16.589 37.069-37.059v-741.171zM494.234 924.652h-148.265c-27.3 0-49.428-22.118-49.428-49.408v-864.707c0-27.29 22.129-49.418 49.428-49.418h148.265c27.31 0 49.428 22.129 49.428 49.418v864.707c0 27.29-22.118 49.408-49.428 49.408zM469.524 72.294c0-20.47-16.599-37.059-37.069-37.059h-24.719c-20.47 0-37.069 16.589-37.069 37.059v741.171c0 20.47 16.599 37.059 37.069 37.059h24.719c20.47 0 37.069-16.589 37.069-37.059v-741.171zM1022.065 57.231l-223.867 835.246c-7.055 26.358-34.161 42.004-60.529 34.939l-143.217-38.369c-26.368-7.055-42.015-34.161-34.949-60.518l223.857-835.236c7.055-26.358 34.161-42.015 60.529-34.939l143.217 38.359c26.378 7.066 42.015 34.161 34.959 60.518zM908.237 52.316l-23.859-6.39c-19.784-5.304-40.1 6.431-45.404 26.204l-191.877 715.93c-5.304 19.763 6.441 40.090 26.214 45.394l23.869 6.39c19.784 5.304 40.1-6.431 45.404-26.214l191.877-715.919c5.294-19.773-6.441-40.090-26.225-45.394z" />
<glyph unicode="&#xe906;" d="M1639.936 413.696c0-622.942-504.994-1127.936-1127.936-1127.936s-1127.936 504.994-1127.936 1127.936c0 622.942 504.994 1127.936 1127.936 1127.936s1127.936-504.994 1127.936-1127.936z" />
<glyph unicode="&#xe907;" d="M1411.584 413.696c0-496.827-402.757-899.584-899.584-899.584s-899.584 402.757-899.584 899.584c0 496.827 402.757 899.584 899.584 899.584s899.584-402.757 899.584-899.584z" />
<glyph unicode="&#xe908;" d="M1209.856 413.696c0-385.415-312.441-697.856-697.856-697.856s-697.856 312.441-697.856 697.856c0 385.415 312.441 697.856 697.856 697.856s697.856-312.441 697.856-697.856z" />
<glyph unicode="&#xe909;" d="M942.080 618.496c0 13.824-13.824 40.96-34.304 47.616-20.48 13.824-40.96 20.48-61.44 27.136v54.784c0 34.304-27.136 61.44-68.096 61.44h-143.36c-34.304 0-68.096-27.136-68.096-61.44v-47.616c0 0 0 0-6.656 0-13.824-6.656-34.304-13.824-47.616-20.48-61.44 27.136-122.88 40.96-184.32 40.96-122.88 0-211.456-54.784-218.624-61.44-20.48-6.656-27.136-27.136-27.136-47.616v-457.216c0-20.48 6.656-34.304 27.136-47.616 13.824-13.824 34.304-13.824 54.784-13.824 0 0 102.4 20.48 198.144 20.48 54.784 0 95.744-6.656 136.704-20.48 6.656 0 13.824-6.656 20.48-6.656s13.824 0 20.48 0c0 0 95.744 27.136 150.016 27.136 54.784 0 116.224-13.824 150.016-20.48 6.656 0 6.656 0 13.824 0 6.656 0 13.824 0 27.136 0 13.824 0 27.136 0 34.304 6.656 20.48 13.824 34.304 34.304 34.304 54.784l-7.68 463.872zM621.056 748.544c0 6.656 6.656 13.824 13.824 13.824h143.36c6.656 0 13.824-6.656 13.824-13.824v-341.504l-47.616 20.48c-27.136 13.824-47.616 13.824-75.264 0l-47.616-27.136-0.512 348.16zM887.296 140.8c0 0 0 0-6.656 0s-13.824 0-20.48 0-6.656 0-13.824 0c-34.304 6.656-95.744 20.48-157.184 20.48s-163.84-27.136-163.84-27.136c-6.656 0-6.656 0-13.824 0-47.616 13.824-88.576 20.48-150.016 20.48-102.4 0-211.456-20.48-211.456-20.48-6.656 0-6.656 0-13.824 0-6.656 0-6.656 6.656-6.656 13.824v463.872c0 6.656 6.656 6.656 6.656 13.824 6.656 6.656 81.92 47.616 190.976 47.616 54.784 0 116.224-13.824 170.496-40.96l13.824-6.656 13.824 6.656c6.656 6.656 27.136 6.656 47.616 13.824v-327.68l122.88 54.784c13.824 6.656 20.48 6.656 34.304 0l122.88-54.784v313.856c13.824-6.656 27.136-13.824 40.96-13.824 6.656 0 6.656-6.656 6.656-13.824v-457.216c-6.144 0-13.312 0-13.312-6.656v0zM423.424 529.92h-190.976c-13.824 0-20.48-6.656-20.48-20.48s13.824-20.48 20.48-20.48h190.976c13.824 0 20.48 6.656 20.48 20.48s-7.168 20.48-20.48 20.48v0zM423.424 441.344h-190.976c-13.824 0-20.48-6.656-20.48-20.48s13.824-20.48 20.48-20.48h190.976c13.824 0 20.48 6.656 20.48 20.48 0 13.312-7.168 20.48-20.48 20.48v0zM423.424 352.256h-190.976c-13.824 0-20.48-6.656-20.48-20.48s13.824-20.48 20.48-20.48h190.976c13.824 0 20.48 6.656 20.48 20.48s-7.168 20.48-20.48 20.48v0z" />
<glyph unicode="&#xe90a;" glyph-name="classroom" d="M512 950.192c-232.046 0-420.155-181.57-420.155-405.403s329.25-566.161 329.25-566.161c41.896-50.269 116.621-57.055 166.89-15.159 5.502 4.585 10.574 9.657 15.159 15.159 0 0 329.011 342.328 329.011 566.161s-188.109 405.403-420.155 405.403v0zM512 369.917c-107.331 0-194.329 84.286-194.329 187.87s86.997 187.551 194.329 187.551 194.329-83.967 194.329-187.551-86.997-187.87-194.329-187.87v0z" />
<glyph unicode="&#xe90f;" glyph-name="clock" d="M923.702 612.733c-44.338 103.499-127.322 186.483-230.822 230.82 27.989 22.039 63.219 35.295 101.608 35.295 90.854 0 164.508-73.652 164.508-164.509 0-38.388-13.256-73.617-35.294-101.606zM916.989 430.78c0-107.873-42.349-205.65-110.966-278.365l56.795-56.796c7.516-7.518 12.166-17.899 12.166-29.371 0-22.937-18.597-41.533-41.536-41.533-11.468 0-21.852 4.649-29.368 12.165l-61.007 61.006c-65.823-45.99-145.755-73.172-232.145-73.172-86.22 0-166.015 27.063-231.765 72.886l-60.583-60.582c-7.603-7.603-18.103-12.303-29.705-12.303-23.198 0-42.007 18.807-42.007 42.007 0 11.601 4.702 22.102 12.305 29.702l56.338 56.339c-68.425 72.681-110.648 170.313-110.648 278.016 0 224.261 181.801 406.063 406.063 406.063s406.062-181.804 406.062-406.064zM510.928 752.83c-177.864 0-322.052-144.186-322.052-322.050s144.188-322.051 322.052-322.051c177.863 0 322.049 144.186 322.049 322.050s-144.186 322.051-322.049 322.051zM678.953 388.772h-168.026c-23.201 0-42.008 18.806-42.008 42.008v224.033c0 23.2 18.806 42.005 42.008 42.005 23.198 0 42.007-18.805 42.007-42.005v-182.029h126.020c23.198 0 42.005-18.806 42.005-42.005 0-23.201-18.806-42.008-42.006-42.008zM98.906 607.044c-22.511 28.584-36.050 64.568-36.050 103.778 0 92.799 75.228 168.026 168.026 168.026 39.209 0 75.195-13.54 103.78-36.050-105.712-45.284-190.471-130.042-235.755-235.753z" />
<glyph unicode="&#xe910;" glyph-name="close" horiz-adv-x="1025" d="M150.781 810.723c77.695 77.696 177.885 128.091 288.575 143.99 135.308 19.42 270.142-15.048 379.565-97.012 109.448-81.989 180.426-201.681 199.864-337.014 40.131-279.461-154.615-539.368-433.936-579.525-117.128-16.806-237.229 7.736-338.199 69.038-17.268 10.5-22.75 32.997-12.278 50.242 10.572 17.138 32.963 22.777 50.236 12.281 86.488-52.568 189.422-73.589 289.852-59.158 239.371 34.334 406.292 257.164 371.932 496.73-16.652 115.991-77.492 218.567-171.32 288.818-93.805 70.279-209.358 99.782-325.321 83.107-239.631-34.341-406.48-257.198-372.066-496.712 9.020-62.7 30.792-121.295 64.796-174.116 10.907-17.018 5.945-39.718-10.939-50.547-16.985-10.937-39.636-6.023-50.545 10.938-39.692 61.767-65.136 130.129-75.707 203.332-19.422 135.311 15.020 270.181 97.063 379.629 14.92 19.987 31.105 38.656 48.428 55.98v0zM567.235 453.477l158.112 156.395c14.367 14.183 14.477 37.333 0.29 51.7-14.189 14.375-37.372 14.485-51.706 0.297l-158.329-156.583-155.914 156.398c-14.3 14.294-37.411 14.373-51.706 0.071-14.299-14.259-14.334-37.403-0.071-51.705l155.695-156.173-156.98-155.3c-14.366-14.228-14.479-37.333-0.289-51.706 7.163-7.244 16.565-10.859 26-10.859 9.284 0 18.573 3.542 25.703 10.567l157.198 155.476 158.475-158.991c7.13-7.164 16.492-10.748 25.888-10.748 9.361 0 18.685 3.583 25.816 10.674 14.294 14.261 14.333 37.372 0.073 51.706l-158.258 158.779z" />
<glyph unicode="&#xe911;" glyph-name="closeClass" d="M512-64c-247.424 0-448 200.576-448 448 0 178.368 105.024 330.624 256 402.304v-147.648c-77.376-58.304-128-150.272-128-254.656 0-176.704 143.296-320 320-320s320 143.296 320 320c0 104.384-50.624 196.352-128 254.656v147.648c150.976-71.744 256-224 256-402.304 0-247.424-200.576-448-448-448zM576 512c0-35.328-28.672-64-64-64s-64 28.608-64 64v384c0 35.328 28.672 64 64 64s64-28.672 64-64v-384z" />
<glyph unicode="&#xe912;" glyph-name="delete" d="M85.385 801.173c0.097 29.28 23.855 52.978 53.148 52.978 0.068 0 0.135 0 0.203 0h266.584v52.914c0.109 29.247 23.843 52.914 53.105 52.914 0.090 0 0.18 0 0.27-0.001h106.666c29.453 0 53.319-23.716 53.319-52.978v-52.999h266.594c29.432 0 53.34-23.716 53.34-52.978v-52.999h-853.23v53.148zM885.275 642.347v-653.092c-0.121-29.285-23.889-52.978-53.19-52.978-0.060 0-0.12 0-0.18 0h-639.838c-0.057 0-0.125 0-0.192 0-29.293 0-53.051 23.698-53.148 52.969v705.93h746.528v-52.828zM352.001 536.349c-0.109 29.294-23.881 52.999-53.191 52.999-0.045 0-0.090 0-0.135 0-0.031 0-0.076 0-0.121 0-29.293 0-53.051-23.698-53.148-52.969v-441.361c0-29.176 23.866-52.892 53.319-52.892s53.34 23.716 53.34 52.892v441.352h-0.064zM565.34 536.349c-0.097 29.303-23.874 53.020-53.191 53.020-0.053 0-0.105 0-0.158 0-0.049 0-0.117 0-0.184 0-29.293 0-53.051-23.698-53.148-52.969v-441.361c0.169-29.248 23.918-52.892 53.19-52.892 0.045 0 0.091 0 0.136 0 29.425 0 53.354 23.716 53.354 52.892v441.331zM778.616 536.349c0 29.283-23.887 52.999-53.362 52.999s-53.319-23.716-53.319-52.978v-441.352c0.169-29.248 23.918-52.892 53.19-52.892 0.045 0 0.091 0 0.136 0 29.404 0 53.333 23.716 53.333 52.892v441.352z" />
<glyph unicode="&#xe913;" glyph-name="discuss" d="M749.548 328.381l0.028 0.166 0.245 0.423 0.103-0.315zM724.868 340.809l0.025 0.148 0.219 0.379 0.092-0.282zM798.068 341.471v444.014c0 12.431-10.078 22.509-22.509 22.509h-641.349c-12.432 0-22.509-10.078-22.509-22.509v-444.014c0-12.431 10.078-22.509 22.509-22.509h83.197v-76.086l-0.125-67.878 0.125 0.141v-0.141l23.898 27.008 104.025 116.956h430.229c12.432-0.001 22.509 10.078 22.509 22.509zM752.754 376.079c0-10.179-8.251-12.803-18.43-12.803l-410-0.195-61.9-69.592v69.861l-86.979-0.073c-10.179 0-18.43 2.624-18.43 12.803v374.796c0 10.179 8.251 12.803 18.43 12.803h558.878c10.179 0 18.43-2.624 18.43-12.803v-374.797zM889.789 580.662h-45.296c0-15.162 0-30.325 0-45.487h5.814c9.372 0 16.973-1.972 16.973-11.345v-256.171c0-9.373-7.6-11.344-16.973-11.344h-101.213l0.069-75.536-95.831 75.581-196.92-0.045c-9.373 0-16.973 1.972-16.973 11.344v9.568h-46.216v-43.891c0-12.431 10.078-22.509 22.509-22.509l222.479 0.042 155.968-122.862v122.819h95.609c12.43 0 22.509 10.078 22.509 22.509v324.818c0 12.432-10.079 22.51-22.509 22.51z" />
<glyph unicode="&#xe914;" glyph-name="down" d="M508.030 941.938c42.697 0 77.337-34.628 77.337-77.339 0-42.708-34.64-77.337-77.337-77.337-42.71 0-77.338 34.628-77.338 77.337 0 42.711 34.628 77.339 77.338 77.339zM392.024 709.926h232.013c21.348 0 38.667-17.309 38.667-38.669v-25.779c0-21.362-17.318-38.669-38.667-38.669h-232.013c-21.362 0-38.67 17.307-38.67 38.669v25.779c0 21.362 17.309 38.669 38.67 38.669zM340.466 529.471h335.129c21.348 0 38.667-17.307 38.667-38.669v-25.779c0-21.36-17.318-38.668-38.667-38.668h-335.129c-21.362 0-38.67 17.307-38.67 38.668v25.779c0 21.362 17.309 38.669 38.67 38.669zM381.649 80.98c-104.435 118.573-234.528 268.040-234.528 268.040s232.201 0 433.209 0c153.393 0 288.609 0 288.609 0s-128.747-147.123-232.441-265.646c-171.291-195.759-92.768-186.372-254.848-2.394z" />
<glyph unicode="&#xe915;" glyph-name="download" d="M194.579 314.294c-76.137 37.494-128.522 115.863-128.522 206.528 0 120.626 92.835 219.548 210.96 229.254 34.331 83.913 116.767 142.992 213.009 142.992 95.488 0 177.413-58.175 212.195-141.003 8.439 0.905 16.969 1.387 25.621 1.387 127.076 0 230.1-102.962 230.1-230.1 0-92.714-54.889-172.649-133.949-209.058h-142.93v289.538h-362.571v-289.537h-123.912zM401.259 537.701v-282.062h-98.532l197.064-252.706 197.065 252.706h-98.563v282.062h-197.035z" />
<glyph unicode="&#xe916;" glyph-name="drop" d="M940.851 713.117c-22.284 21.267-57.523 20.414-78.826-1.833l-349.89-366.548-349.89 366.548c-21.267 22.247-56.507 23.118-78.826 1.833-22.247-21.249-23.082-56.543-1.814-78.808l390.21-408.792c10.525-11.015 25.078-17.257 40.32-17.257s29.796 6.242 40.32 17.257l390.211 408.792c21.266 22.265 20.432 57.559-1.815 78.808z" />
<glyph unicode="&#xe917;" glyph-name="file" d="M759.101 742.226h-596.347c-26.931 0-48.824-21.903-48.824-48.824v-490.824c0-26.9 21.893-48.824 48.824-48.824h698.501c26.9 0 48.824 21.924 48.824 48.824v400.712l-150.979 138.936zM770.826 675.707l66.181-60.897h-66.181v60.897zM869.048 202.588c0-4.321-3.492-7.823-7.803-7.823h-698.491c-4.311 0-7.834 3.502-7.834 7.823v490.824c0 4.301 3.523 7.823 7.834 7.823h567.101v-106.916c0-11.305 9.165-20.521 20.47-20.521h118.733v-371.21zM250.511 465.449l-42.783 168.632h31.089l19.763-84.244c2.796-11.766 5.468-23.695 7.772-34.714 2.621 11.305 5.796 23.306 8.919 35.062l22.2 83.886h28.529l20.255-84.47c2.621-11.028 5.233-22.405 7.434-33.403 2.263 9.789 4.762 19.825 7.352 30.167l0.942 3.748 21.975 83.948h30.444l-47.79-168.632h-28.457l-20.972 86.579c-2.591 10.639-4.854 20.388-6.728 29.932-2.181-9.503-4.721-19.231-7.854-30.106l-23.624-86.405h-28.467zM429.23 581.97c0 8.479 6.871 15.36 15.36 15.36h242.35c8.489 0 15.36-6.881 15.36-15.36s-6.871-15.36-15.36-15.36h-242.35c-8.489 0-15.36 6.881-15.36 15.36zM439.47 494.080h359.25c8.489 0 15.36-6.881 15.36-15.36s-6.871-15.36-15.36-15.36h-359.25c-8.489 0-15.36 6.881-15.36 15.36s6.871 15.36 15.36 15.36zM814.080 386.56c0-8.479-6.871-15.36-15.36-15.36h-581.12c-8.489 0-15.36 6.881-15.36 15.36s6.871 15.36 15.36 15.36h581.12c8.489 0 15.36-6.881 15.36-15.36zM814.080 296.96c0-8.479-6.871-15.36-15.36-15.36h-581.12c-8.489 0-15.36 6.881-15.36 15.36s6.871 15.36 15.36 15.36h581.12c8.489 0 15.36-6.881 15.36-15.36z" />
<glyph unicode="&#xe918;" glyph-name="guanli" d="M382.89 675.451c0 82.045-66.641 148.351-148.35 148.351-82.045 0-148.351-66.64-148.351-148.351 0-39.851 15.74-76.017 41.524-102.808-7.032-29.133-10.715-59.608-10.715-91.086 0-141.318 74.342-264.888 185.856-334.208l29.804 121.896c-60.611 50.901-99.123 127.253-99.123 212.312 0 15.404 1.339 30.809 3.683 45.543 80.371 1.339 145.672 66.976 145.672 148.351v0 0zM510.144 758.5c51.235 0 99.458-14.065 140.647-38.175-6.361-16.744-10.045-34.828-10.045-53.581 0-82.045 66.639-148.351 148.35-148.351s148.35 66.64 148.35 148.351c0 81.709-66.303 148.015-148.35 148.015-19.088 0-37.506-3.683-54.584-10.381-63.627 44.204-140.984 70.324-224.704 70.324-56.595 0-110.509-12.055-159.066-33.487l67.98-98.453c28.799 10.381 59.609 15.738 91.422 15.738v0 0zM786.752 468.832c-4.354-101.132-62.957-187.867-147.348-232.405-24.445 48.223-74.676 81.041-132.275 81.041-82.044 0-148.35-66.642-148.35-148.352s66.641-148.351 148.35-148.351c61.617 0 114.193 37.507 136.965 90.751 151.365 54.922 259.529 199.922 259.529 370.041 0 8.707-0.334 17.414-1.004 26.121l-115.867-38.846z" />
<glyph unicode="&#xe919;" glyph-name="h_lesson" d="M974.039 929.28l-449.556-74.834c-4.332 0-8.468-0.717-12.483-1.761-4.014 1.044-8.151 1.761-12.493 1.761l-449.556 74.834c-27.587 0-49.951-22.333-49.951-49.889v-798.188c0-27.546 22.364-49.889 49.951-49.889l449.556-74.834c4.342 0 8.479 0.727 12.493 1.772 4.014-1.044 8.151-1.772 12.483-1.772l449.556 74.834c27.597 0 49.961 22.344 49.961 49.889v798.188c0 27.556-22.364 49.889-49.961 49.889zM949.074 156.027c0-27.546-22.364-49.889-49.951-49.889l-299.704-74.834h-174.838l-299.715 74.834c-27.587 0-49.951 22.344-49.951 49.889v648.53c0 27.556 22.364 49.889 49.951 49.889l299.715-74.834c27.587 0 49.951-22.344 49.951-49.889v-324.26c0-13.783 11.182-24.955 24.975-24.955h24.965c13.804 0 24.975 11.172 24.975 24.955v324.27c0 27.546 22.364 49.889 49.961 49.889l299.704 74.834c27.587 0 49.951-22.333 49.951-49.889v-648.54z" />
<glyph unicode="&#xe91a;" glyph-name="h_live" d="M998.4 12.8h-972.8c-14.141 0-25.6-11.459-25.6-25.6v-25.6c0-14.141 11.459-25.6 25.6-25.6h972.8c14.141 0 25.6 11.459 25.6 25.6v25.6c0 14.141-11.459 25.6-25.6 25.6zM972.8 960h-921.6c-28.283 0-51.2-22.917-51.2-51.2v-665.6c0-28.283 22.917-51.2 51.2-51.2h921.6c28.283 0 51.2 22.917 51.2 51.2v665.6c0 28.283-22.917 51.2-51.2 51.2zM947.2 320c0-28.283-22.917-51.2-51.2-51.2h-768c-28.273 0-51.2 22.917-51.2 51.2v512c0 28.283 22.927 51.2 51.2 51.2h768c28.283 0 51.2-22.917 51.2-51.2v-512zM568.484 693.074c-128.051 73.933-192.082 36.956-192.082-110.899s64.031-184.822 192.082-110.889 128.051 147.855 0 221.788z" />
<glyph unicode="&#xe91b;" glyph-name="home" d="M1017.979 419.82l-487.291 493.128c-8.438 8.54-22.292 8.356-31.683-0.041-4.465-0.655-8.704-2.632-12.052-6.031l-480.788-486.554c-8.684-8.786-8.223-23.501 1.034-32.85l16.742-16.947c9.247-9.359 23.788-9.83 32.461-1.044l81.152 82.125v-429.65c0-24.852 19.907-45.005 44.462-45.005h177.838c0 0 66.693-5.212 66.693 45.445 0 31.222 0 67.041 0 67.041 0 24.852 19.907 44.995 44.462 44.995h88.934c24.545 0 44.462-20.142 44.462-44.995 0 0 0-35.287 0-66.335 0-51.057 66.693-46.162 66.693-46.162h177.848c24.545 0 44.462 20.152 44.462 45.005v420.956l73.697-74.578c8.786-8.899 23.521-8.428 32.881 1.055l16.957 17.172c9.38 9.472 9.83 24.371 1.034 33.27zM826.696 89.446c0-24.852-19.896-45.005-44.462-45.005h-111.145v112.497c0 24.852-19.907 45.005-44.472 45.005h-222.3c-24.556 0-44.462-20.152-44.462-45.005v-112.486h-111.145c-24.556 0-44.462 20.152-44.462 45.005v427.448h-2.171l309.105 312.812 315.525-319.314v-420.956z" />
<glyph unicode="&#xe91c;" glyph-name="jiaoxue" d="M579.171 834.625c0 0-112.39-0.036-122.964-0.036 0.048 0-0.098-0.008-0.146-0.011-17.947-1.649-28.899-17.376-28.899-34.311v-189.045c-3.285 3.59-10.248 13.55-15.387 14.942 0 0-69.196 18.433-86.876 23.519-12.971 2.27-25.145-5.031-28.317-16.981l-120.971-455.832c-3.363-12.669 4.958-25.972 18.547-29.656 0 0 77.023-22.507 86.77-23.498 0.035-0.007 0.071-0.013 0.104-0.020 12.972-2.27 25.146 5.031 28.317 16.981l117.813 436.174v-421.053c0-17.954 14.728-34.372 33.988-34.372 0 0 107.774 0.388 118.959 0 17.947 1.65 33.988 17.684 33.988 34.62v646.017c0 17.954-15.668 32.562-34.927 32.562zM356.758 462.815l-7.408-29.851c-1.644-6.629-8.274-10.659-14.779-8.982l-29.285 7.55c-6.505 1.676-10.457 8.433-8.813 15.063l7.408 29.851c1.644 6.628 8.274 10.658 14.778 8.982l29.286-7.55c6.504-1.677 10.458-8.434 8.813-15.063zM382.383 543.582l-7.195-28.996c-1.598-6.439-8.037-10.353-14.354-8.725l-28.447 7.334c-6.317 1.628-10.156 8.193-8.56 14.632l7.196 28.995c1.597 6.439 8.037 10.353 14.354 8.725l28.446-7.334c6.318-1.629 10.157-8.194 8.56-14.631zM553.524 544.978c0-7.399-5.952-13.417-13.268-13.417h-32.943c-7.317 0-13.269 6.019-13.269 13.417v33.316c0 7.397 5.952 13.417 13.269 13.417h32.943c7.316 0 13.268-6.020 13.268-13.417v-33.316zM553.524 656.684c0-7.397-5.952-13.416-13.268-13.416h-32.943c-7.317 0-13.269 6.019-13.269 13.416v33.317c0 7.399 5.952 13.417 13.269 13.417h32.943c7.316 0 13.268-6.019 13.268-13.417v-33.317zM815.999 568.244l-123.395-0.027c-0.322 0-0.636 0.006-0.951 0.012-0.814 0.016-1.617 0.028-2.455-0.023-0.050-0.002-0.1-0.006-0.15-0.011-18.508-1.669-32.462-15.866-32.462-33.023v-380.751c0-18.186 16.157-32.982 36.018-32.982h116.104c0.354 0 0.703 0.018 1.055 0.027h6.236c0.322 0 0.638-0.007 0.951-0.012 0.814-0.016 1.617-0.028 2.455 0.023 0.050 0.002 0.1 0.007 0.15 0.011 18.508 1.669 32.462 15.867 32.462 33.023v380.751c0 18.186-16.158 32.982-36.018 32.982zM782.945 424.678c0-7.399-5.952-13.419-13.268-13.419h-32.943c-7.316 0-13.268 6.020-13.268 13.419v33.316c0 7.397 5.952 13.418 13.268 13.418h32.944c7.316 0 13.268-6.020 13.268-13.418v-33.316z" />
<glyph unicode="&#xe91d;" glyph-name="kecheng" d="M921.425 960h-716.493c-113.104 0-204.712-85.979-204.712-191.991v-671.968c0-88.319 76.328-159.968 170.569-159.968h580.067c37.726 0 68.213 28.587 68.213 63.973v575.973c0 35.313-30.488 63.973-68.213 63.973h-505.201c-2.266-0.146-4.314-0.658-6.58-0.658-56.588 0-102.356 43.209-102.356 96.288 0 52.494 44.671 95.045 100.236 96.215v0.146h582.114c37.726 0 68.213-28.66 68.213-63.973v-703.918c0-35.386 30.561-64.046 68.286-64.046s68.213 28.66 68.213 64.046v799.913c0 53.006-45.841 95.995-102.356 95.995v0z" />
<glyph unicode="&#xe91e;" glyph-name="lesson" d="M371.712 666.624c-4.096 0-7.68 2.048-9.216 6.144-2.56 5.12 0 11.264 5.12 13.824l166.4 76.288c5.12 2.56 11.264 0 13.824-5.12s0-11.264-5.12-13.824l-166.4-76.288c-1.536-1.024-3.072-1.024-4.608-1.024zM381.952-2.56c-19.968 0-38.912 3.072-55.808 9.728-7.168 3.072-10.752 4.096-13.824 5.12-5.632 2.048-9.216 3.072-18.432 8.192-59.904 29.184-77.824 58.88-77.824 126.464v525.312c0 9.216 5.12 16.896 13.312 20.992l380.416 176.64c11.776 5.12 25.088 0.512 30.72-11.264 5.12-11.776 0.512-25.088-11.264-30.72l-336.896-156.16 75.776-32.768c31.744-13.824 50.176-10.752 68.608-1.536 26.624 13.312 299.008 137.728 310.272 142.848 7.168 3.072 15.36 2.56 22.016-1.536s10.752-11.776 10.752-19.456v-582.656c0-8.704-5.12-16.896-12.8-20.48l-236.032-118.784c-40.448-20.992-97.792-39.936-148.992-39.936zM262.144 634.88v-487.936c0-47.616 6.144-62.464 52.224-84.992 7.68-3.584 9.216-4.608 13.824-6.144 3.072-1.024 7.68-2.56 15.872-6.144 42.496-16.896 116.224 3.072 167.424 28.672l223.232 112.128v532.48c-75.264-34.304-256-117.248-276.48-127.488-34.816-17.408-67.072-16.896-107.52 0.512l-88.576 38.912z" />
<glyph unicode="&#xe91f;" glyph-name="list" d="M915.629 408.726h-559.796c-23.213 0-41.984 21.934-41.984 48.986 0 27.046 18.773 48.98 41.984 48.98h559.796c23.216 0 41.989-21.935 41.989-48.98 0.001-27.052-18.774-48.986-41.989-48.986zM915.629 669.919h-559.796c-23.213 0-41.984 21.935-41.984 48.846 0 27.051 18.773 48.985 41.984 48.985h559.796c23.216 0 41.989-21.934 41.989-48.985 0.001-26.912-18.774-48.846-41.989-48.846zM187.896 147.671h-83.969c-23.212 0-41.984 21.934-41.984 48.979 0 27.048 18.773 48.985 41.984 48.985h83.969c23.217 0 41.984-21.938 41.984-48.985s-18.768-48.979-41.984-48.979zM187.896 408.726h-83.969c-23.212 0-41.984 21.934-41.984 48.986 0 27.046 18.773 48.98 41.984 48.98h83.969c23.217 0 41.984-21.935 41.984-48.98 0-27.052-18.768-48.986-41.984-48.986zM187.896 669.919h-83.969c-23.212 0-41.984 21.935-41.984 48.846 0 27.051 18.773 48.985 41.984 48.985h83.969c23.217 0 41.984-21.934 41.984-48.985 0-26.912-18.768-48.846-41.984-48.846zM355.834 147.671c-23.213 0-41.984 21.934-41.984 48.979 0 27.048 18.773 48.985 41.984 48.985h559.796c23.216 0 41.989-21.938 41.989-48.985s-18.775-48.979-41.989-48.979h-559.796z" />
<glyph unicode="&#xe920;" glyph-name="live" d="M750.080 921.6h-486.4c-125.44 0-230.4-102.4-230.4-230.4v-486.4c0-125.44 102.4-230.4 230.4-230.4h486.4c125.44 0 230.4 102.4 230.4 230.4v486.4c0 125.44-102.4 230.4-230.4 230.4v0zM931.84 204.8c0-99.84-81.92-179.2-179.2-179.2h-486.4c-99.84 0-179.2 81.92-179.2 179.2v486.4c0 99.84 81.92 179.2 179.2 179.2h486.4c99.84 0 179.2-81.92 179.2-179.2v-486.4zM642.56 512l-161.28 102.4c-25.6 17.92-58.88 17.92-87.040 2.56s-43.52-43.52-43.52-74.24v-194.56c0-30.72 15.36-58.88 43.52-74.24 12.8-7.68 25.6-10.24 40.96-10.24s30.72 5.12 46.080 12.8l161.28 102.4c23.040 17.92 35.84 43.52 35.84 69.12s-12.8 51.2-35.84 64v0zM614.4 427.52l-161.28-102.4c-10.24-7.68-23.040-7.68-33.28 0-10.24 5.12-17.92 17.92-17.92 28.16v194.56c0 12.8 7.68 23.040 17.92 28.16 5.12 2.56 10.24 5.12 15.36 5.12s12.8-2.56 17.92-5.12l161.28-102.4c7.68-5.12 12.8-12.8 12.8-20.48 0-12.8-5.12-23.040-12.8-25.6v0zM533.745 248.402c-6.523-4.234-15.242-2.376-19.476 4.147v0c-4.234 6.523-2.376 15.242 4.147 19.476l119.188 77.332c6.523 4.234 15.242 2.376 19.476-4.147v0c4.234-6.523 2.376-15.242-4.147-19.476l-119.188-77.332z" />
<glyph unicode="&#xe921;" glyph-name="lubo" d="M726.335 113.72h-439.555c-16.055 0-29.069-13.017-29.069-29.069 0-16.054 13.014-29.068 29.069-29.068h439.555c16.054 0 29.069 13.016 29.069 29.068s-13.015 29.069-29.069 29.069zM474.627 437.773l90.253 69.077-90.253 65.577zM907.165 839.99h-790.486c-42.33 0-76.767-34.438-76.767-76.768v-518.622c0-42.325 34.438-76.764 76.767-76.764h790.486c42.329 0 76.767 34.438 76.767 76.764v518.622c0 42.33-34.438 76.768-76.767 76.768zM620.155 477.412l-2.396-2.143-134.321-104.242c-7.942-7.147-18.878-11.363-29.672-11.363-20.981 0-36.804 16.020-36.804 37.271v212.54c0 21.598 17.36 38.517 39.521 38.517 9.895 0 19.393-3.448 26.48-9.538l135.792-100.074 1.394-1.392c7.961-7.952 12.351-18.53 12.351-29.782 0.002-11.256-4.384-21.836-12.345-29.794z" />
<glyph unicode="&#xe922;" glyph-name="luke" d="M726.335 113.72h-439.555c-16.055 0-29.069-13.017-29.069-29.069 0-16.054 13.014-29.068 29.069-29.068h439.555c16.054 0 29.069 13.016 29.069 29.068s-13.015 29.069-29.069 29.069zM474.627 437.773l90.253 69.077-90.253 65.577zM907.165 839.99h-790.486c-42.33 0-76.767-34.438-76.767-76.768v-518.622c0-42.325 34.438-76.764 76.767-76.764h790.486c42.329 0 76.767 34.438 76.767 76.764v518.622c0 42.33-34.438 76.768-76.767 76.768zM620.155 477.412l-2.396-2.143-134.321-104.242c-7.942-7.147-18.878-11.363-29.672-11.363-20.981 0-36.804 16.020-36.804 37.271v212.54c0 21.598 17.36 38.517 39.521 38.517 9.895 0 19.393-3.448 26.48-9.538l135.792-100.074 1.394-1.392c7.961-7.952 12.351-18.53 12.351-29.782 0.002-11.256-4.384-21.836-12.345-29.794z" />
<glyph unicode="&#xe923;" glyph-name="me" d="M511.997 362.667c125.778 0 241.87 109.881 254.883 270.586 13.607 168.151-98.064 326.747-254.883 326.747-156.813 0-268.491-158.596-254.873-326.747 13.007-160.705 129.101-270.586 254.873-270.586zM509.719 275.927c-281.511 0-509.719-111.946-509.719-250.039 0-47.221 43.411-65.423 171.081-79.221 98.696-10.667 216.529-10.667 340.919-10.667 127.414 0 253.777 0 342.675 10.667 125.756 15.090 169.325 32 169.325 79.221 0 138.093-232.78 250.039-514.281 250.039z" />
<glyph unicode="&#xe924;" glyph-name="more" d="M121.744 568.243c-65.493 0-118.589-53.073-118.589-118.589 0-65.493 53.096-118.566 118.589-118.566s118.589 53.073 118.589 118.566c0 65.516-53.096 118.589-118.589 118.589zM499.974 568.243c-65.493 0-118.589-53.073-118.589-118.589 0-65.493 53.096-118.566 118.589-118.566s118.589 53.073 118.589 118.566c0 65.516-53.096 118.589-118.589 118.589zM901.845 568.243c-65.493 0-118.591-53.073-118.591-118.589 0-65.493 53.097-118.566 118.591-118.566s118.589 53.073 118.589 118.566c-0.001 65.516-53.096 118.589-118.589 118.589z" />
<glyph unicode="&#xe925;" glyph-name="newClass" d="M583.548 727.426v-387.814l-117.674 111.54-120.232-111.54v387.814h-83.396c-31.364 0-56.79 25.426-56.79 56.791s25.426 56.79 56.79 56.79h613.118v54.495l-586.217 0.064c-76.897 0-139.234-62.337-139.234-139.234v-614.949c0-76.897 62.337-139.234 139.234-139.234h446.983c76.897 0 139.234 62.337 139.234 139.234v586.041h-291.815z" />
<glyph unicode="&#xe926;" glyph-name="news" d="M902.144 499.712h-46.080c0 0 0 131.584 0 189.952 0 33.792-11.264 72.704-101.376 72.704h-236.032c-12.8 0-23.040 10.24-23.040 23.040s10.24 23.040 23.040 23.040h236.032c128 0 147.456-74.24 147.456-118.784 0.512-58.368 0-189.952 0-189.952zM260.096 267.776h-29.184c-52.736 0-60.928 30.72-60.928 49.152v59.392c0 5.632 4.608 10.24 10.24 10.24s10.24-4.608 10.24-10.24v-58.88c0-13.312 4.608-28.672 40.448-28.672h29.184c5.632 0 10.24-4.608 10.24-10.24s-4.608-10.752-10.24-10.752zM334.848 58.368c0 0 0 0 0 0-9.728 0-17.92 6.144-21.504 14.848l-47.104 123.392h-60.928c-60.928 0-110.080 49.152-110.080 110.080v327.68c0 60.928 49.152 110.080 110.080 110.080h522.24c60.928 0 110.080-49.152 110.080-110.080v-327.68c0-60.928-49.152-110.080-110.080-110.080h-322.048l-48.64-123.904c-4.096-8.704-12.288-14.336-22.016-14.336zM205.312 698.368c-35.328 0-64-28.672-64-64v-327.68c0-35.328 28.672-64 64-64h76.8c9.728 0 17.92-6.144 21.504-14.848l31.744-82.944 32.768 82.944c3.584 8.704 11.776 14.336 21.504 14.336h337.92c35.328 0 64 28.672 64 64v327.68c0 35.328-28.672 64-64 64h-522.24z" />
<glyph unicode="&#xe927;" glyph-name="people" d="M798.966 218.441c0 95.42-81.887 202.405-178.561 245.623 46.925 32.917 77.605 87.414 77.605 149.086 0 100.512-81.482 181.993-181.993 181.993s-181.993-81.482-181.993-181.993c0-62.132 31.142-116.981 78.661-149.818-95.39-44.595-174.736-160.544-174.736-242.276-0.001-152.26 561.015-152.26 561.015-2.615zM839.040 480.661c36.532 25.627 60.418 68.054 60.418 116.066 0 78.251-63.435 141.685-141.685 141.685-19.904 0-38.845-4.112-56.031-11.52 24.979-31.158 39.932-70.703 39.932-113.745 0-61.671-30.681-116.169-77.605-149.086 96.674-43.218 178.561-150.203 178.561-245.623 0-3.603-0.333-7.118-0.967-10.548 75.93 10.987 136.394 38.201 136.394 81.546 0 74.288-63.751 157.579-139.014 191.225zM194.289 221.056c0 81.732 79.346 197.681 174.736 242.276-47.519 32.836-78.661 87.685-78.661 149.818 0 43.844 15.507 84.066 41.333 115.485-16.052 6.313-33.534 9.78-51.826 9.78-78.251 0-141.685-63.435-141.685-141.685 0-48.371 24.245-91.073 61.239-116.636-74.263-34.718-136.036-124.988-136.036-188.618 0-43.279 58.225-70.752 132.154-82.527-0.811 3.924-1.253 7.956-1.253 12.109z" />
<glyph unicode="&#xe928;" glyph-name="play" d="M836.115 448l-641.83-374.4v748.8l641.83-374.4z" />
<glyph unicode="&#xe929;" glyph-name="quit" d="M984.112 449.024c0-17.408-7.536-33.056-19.616-43.84v0l-197.12-176.832c-10.432-9.456-24.368-15.12-39.584-15.12-32.624 0-59.12 26.368-59.12 58.976 0 17.408 7.616 33.008 19.616 43.776v0l82.592 74.112h-358.416c-32.656 0-59.12 26.384-59.12 58.976s26.464 58.976 59.12 58.976v0h358.416l-82.592 74.112c-11.952 10.784-19.616 26.416-19.616 43.792 0 32.56 26.496 58.976 59.12 58.976 15.2 0 29.136-5.712 39.584-15.136v0l197.12-176.864c12.080-10.896 19.616-26.544 19.616-43.904zM392.704 842.048h-236.56v-786.144h236.56c32.656 0 59.12-26.368 59.12-58.976s-26.496-58.976-59.12-58.976h-295.712c-32.656 0-59.12 26.368-59.12 58.976v904.096c0 32.544 26.496 58.976 59.12 58.976h295.68c32.656 0 59.12-26.384 59.12-58.976 0-32.576-26.432-58.976-59.088-58.976z" />
<glyph unicode="&#xe92a;" glyph-name="search" d="M716.705 746.316c-138.888 138.934-364.124 138.934-503.059 0s-138.934-364.17 0-503.059c138.914-138.924 364.14-138.924 503.059-0.015v0.015c138.924 138.904 138.924 364.13 0.015 503.044 0 0.005-0.015 0.005-0.015 0.015zM136.238 165.849c-181.64 181.69-181.64 476.225 0 657.921 181.68 181.64 476.2 181.64 657.921 0 181.65-181.696 181.65-476.23 0-657.921-181.721-181.64-476.235-181.64-657.92 0zM1005.351-45.389c-24.836-24.801-65.069-24.801-89.885 0l-89.84 89.885c-24.806 24.822-24.806 65.039 0 89.845 24.801 24.8 65.018 24.8 89.84 0l89.885-89.845c24.863-24.862 24.863-65.069 0-89.885z" />
<glyph unicode="&#xe92b;" glyph-name="star" horiz-adv-x="1025" d="M512.004 937.104c-17.552 0-33.584-9.888-41.344-25.6l-133.36-270-297.776-43.328c-17.328-2.56-31.952-14.64-37.264-31.36-5.424-16.672-0.88-35.008 11.696-47.184l215.552-210.224-50.912-296.72c-2.944-17.28 4.16-34.688 18.336-45.056 7.936-5.872 17.616-8.72 27.088-8.72 7.328 0 14.752 1.664 21.44 5.248l266.544 139.984 266.544-140c6.688-3.6 14.096-5.248 21.472-5.248 9.44 0 19.024 2.848 27.056 8.72 14.192 10.368 21.28 27.776 18.336 45.056l-50.912 296.72 215.536 210.224c12.592 12.176 17.12 30.512 11.712 47.184-5.312 16.72-19.936 28.8-37.28 31.36l-297.712 43.344-133.408 270.016c-7.776 15.696-23.808 25.584-41.344 25.584v0z" />
<glyph unicode="&#xe92c;" glyph-name="student" d="M511.998 362.667c125.779 0 241.87 109.881 254.882 270.586 13.607 168.151-98.064 326.747-254.882 326.747-156.814 0-268.492-158.596-254.874-326.747 13.007-160.705 129.101-270.586 254.874-270.586zM509.719 275.927c-281.511 0-509.719-111.946-509.719-250.039 0-47.221 43.411-65.423 171.082-79.221 98.695-10.667 216.529-10.667 340.918-10.667 127.414 0 253.777 0 342.675 10.667 125.756 15.090 169.325 32 169.325 79.221 0 138.093-232.78 250.039-514.281 250.039z" />
<glyph unicode="&#xe92d;" glyph-name="teacher" horiz-adv-x="1029" d="M330.547 468.777c24.745-26.511 55.306-47.135 87.322-58.916 33.475-13.251 68.403-20.618 103.332-20.618s69.857 5.893 101.873 20.618c32.020 14.73 62.582 35.348 87.322 58.916 26.199 25.037 46.572 55.967 58.214 88.371 13.097 33.874 20.378 69.217 20.378 104.576 0 36.818-7.281 72.172-20.378 104.566-14.556 32.404-34.934 63.334-58.214 88.371-24.74 26.511-55.301 47.135-87.322 58.916-64.031 26.511-141.164 26.511-205.204 0-32.010-14.725-62.572-35.348-87.322-58.916-26.199-25.037-46.572-55.967-58.209-88.371-13.102-33.874-20.372-69.217-20.372-104.566 0-36.823 7.27-72.166 20.372-104.576 13.097-33.879 33.469-64.809 58.209-88.371v0zM312.94 744.893c11.484 26.568 27.889 51.466 49.219 73.057 21.325 19.917 45.937 36.531 73.825 48.148 27.889 11.622 57.421 16.599 85.304 16.599 27.889 0 59.064-6.641 85.309-16.599 27.889-11.622 52.495-26.568 73.82-48.148 19.692-21.591 37.74-44.831 49.219-73.057 11.484-26.557 18.048-56.448 18.048-84.669s-6.564-58.112-18.048-84.68c-11.484-26.563-27.889-51.466-49.219-73.047-21.325-19.927-45.932-36.531-73.82-48.148-54.134-21.581-118.113-21.581-172.257 0-27.889 11.622-52.495 26.568-73.82 48.148-19.692 21.581-37.729 44.826-49.219 73.047-11.484 26.568-18.038 56.453-18.038 84.68 1.633 26.563 8.192 56.448 19.676 84.669v0zM449.208-4.065l-16.671 43.535c-0.614 1.587-58.481 152.827-108.554 294.497-255.841-95.898-276.070-280.94-276.070-336.328h-36.925c0 62.792 22.948 275.599 318.213 377.436l17.367 5.985 6.072-17.331c35.149-100.178 75.643-208.625 97.787-267.305l22.61 55.27-44.728 106.138 92.099 106.644 76.57-107.075-36.987-106.45 18.668-54.502c29.496 66.98 84.598 195.881 101.714 261.827l5.315 20.531 19.615-8.1c305.505-126.356 307.717-363.131 307.671-373.156l-36.925 0.195c0 8.776-3.123 212.639-265.841 330.629-30.94-100.828-113.28-281.754-117.007-289.951l-19.256-42.168-53.023 154.798 34.893 100.444-38.154 53.325-46.423-53.755 41.769-99.169-63.795-155.965zM750.244 662.794c0-128.525-104.19-232.714-232.714-232.714s-232.714 104.19-232.714 232.714c0 128.525 104.19 232.714 232.714 232.714s232.714-104.19 232.714-232.714zM310.979 345.6c0 0-198.395-81.915-222.72-167.68s-65.28-162.56-65.28-162.56l6.4-17.715 419.83-1.705-113.055 347.53-25.175 2.13zM703.089 345.6l-129.147-349.348 407.757 1.459c0 0 9.011 156.918-119.465 258.714s-159.145 89.175-159.145 89.175z" />
<glyph unicode="&#xe92e;" glyph-name="upload" d="M678.637 4.848v279.073l-168.011-98.648 168.011-180.425zM231.824 117l340.54 184.342-496.192 580.362 584.825-532.779 297.449 160.715-892.59 387.416 165.969-780.056z" />
<glyph unicode="&#xe92f;" glyph-name="user" d="M891.484 960h-758.968c-27.668 0-50.074-22.497-50.514-50.391-0.010-0.256-0.082-0.461-0.082-0.717v-921.692c0-28.273 22.651-51.2 50.596-51.2h758.968c27.935 0 50.596 22.927 50.596 51.2v921.6c0 28.283-22.661 51.2-50.596 51.2zM157.819 115.2v665.6c0 26.665 51.896 49.367 78.387 43.663l402.299-94.863c14.664-3.174 25.293-6.431 25.293-25.6v-512c0-19.159-10.629-22.426-25.293-25.6l-402.299-93.194c-26.491-5.714-78.387 15.34-78.387 41.994zM866.181 64c0-28.273-22.651-51.2-50.596-51.2h-455.291l355.072 95.836c13.558 3.656 24.32 21.504 24.32 39.926v600.535c0 18.432-10.762 36.27-24.32 39.926l-348.887 94.177h449.096c27.945 0 50.596-22.917 50.596-51.2v-768zM567.644 504.822c-25.18 1.024-46.285-24.033-46.285-55.992 0-31.949 21.105-56.996 46.285-55.982 24.289 0.983 43.356 26.030 43.356 55.982s-19.067 54.999-43.356 55.992z" />
<glyph unicode="&#xe930;" glyph-name="video" d="M750.225 294.355v-117.088l208.837-112.829v352.794zM777.591 657.89c0 119.527-93.966 216.394-209.828 216.394-109.141 0-198.825-85.982-208.857-195.84-26.482 41.669-72.093 69.289-124.006 69.289-82.022 0-148.455-68.518-148.455-153.12 0-52.615 25.774-98.973 64.91-126.55h-3.576c-45.777 0-82.841-38.24-82.841-85.409v-275.488c0-47.19 37.064-85.45 82.841-85.45h524.004c45.695 0 82.822 38.26 82.822 85.45v275.483c0 47.175-37.126 85.414-82.822 85.414h-3.266c64.944 36.775 109.074 107.994 109.074 189.827zM317.495 468.063c31.132 21.689 54.066 54.872 62.326 94.004 19.255-40.069 50.389-72.723 88.345-94.004h-150.671z" />
<glyph unicode="&#xe931;" glyph-name="view" d="M512.122 687.854c-247.216 0-412.027-247.216-412.027-247.216s164.811-247.216 412.027-247.216c247.216 0 412.027 247.216 412.027 247.216s-164.932 247.216-412.027 247.216v0zM512.122 277.647c-90.537 0-163.962 73.424-163.962 163.962s73.424 163.962 163.962 163.962c90.537 0 163.962-73.424 163.962-163.962-0.122-90.658-73.424-163.962-163.962-163.962v0zM429.716 441.123c0-21.482 8.86-42.841 24.030-58.012s36.53-24.030 58.012-24.030c21.482 0 42.841 8.86 58.012 24.030 15.17 15.17 24.030 36.53 24.030 58.012s-8.86 42.841-24.030 58.012c-15.17 15.17-36.53 24.030-58.012 24.030s-42.841-8.86-58.012-24.030c-15.17-15.292-24.030-36.53-24.030-58.012v0z" />
<glyph unicode="&#xe932;" glyph-name="write" d="M734.393 896.773h-551.423c0 0-69.384-0.878-78.876-79.754v-733.283c0 0-0.729-84.508 93.485-84.508h641.99c0 0 74.494 4.168 80.339 80.854v593.050l-57.242-61.347-0.434-554.801-700.895 0.729v782.4h513.173l59.884 56.659zM803.961 857.918l86.548-67.38 18.077 24.103c0 0 13.696 18.076 0 39.988 0 0-12.602 20.816-33.964 32.865 0 0-29.032 15.886-48.202-3.285l-22.46-26.291zM863.118 754.935l-147.346-195.555c0 0-13.146-24.102-36.154-35.056l-65.187-31.223c0 0-17.528-8.764-21.362 15.336l11.504 71.758c0 0-1.098 13.146 16.43 36.148l156.118 206.51 85.997-67.919zM317.542 387.927h386.176c0 0 12.602 3.289 12.054-18.072l0.017-17.735c0 0-2.757-9.863-17.546-7.672l-376.867-0.318c0 0-13.143-0.775-14.244 11.822v23.211c0.001-0.001 2.194 8.764 10.41 8.764v0zM317.542 244.412h386.176c0 0 12.602 3.29 12.054-18.077l0.017-17.729c0 0-2.757-9.863-17.546-7.672l-376.867-0.318c0 0-13.143-0.775-14.244 11.822v23.21c0.001-0.001 2.194 8.764 10.41 8.764v0z" />
<glyph unicode="&#xe933;" glyph-name="writeClass" d="M783.706 672.927l-125.895 125.89 62.974 62.947c20.866 20.838 54.652 20.838 75.517 0l50.352-50.351c20.866-20.865 20.866-54.703 0-75.567l-62.947-62.919zM417.966 307.202l-125.896 125.89 342.254 339.565 125.894-125.891-342.252-339.564zM190.931 203.959l76.598 204.594 124.841-124.865-201.439-79.729zM756.299 160.934c17.622 0 31.892-14.27 31.892-31.892 0-17.595-14.27-31.865-31.892-31.865h-563.881c-17.595 0-31.866 14.269-31.866 31.865 0 17.622 14.271 31.892 31.866 31.892h563.881z" />
<glyph unicode="&#xe934;" glyph-name="X" d="M514.756 893.238c-247.428 0-447.994-200.564-447.994-447.994 0-247.404 200.564-447.994 447.994-447.994 247.402 0 447.993 200.59 447.993 447.994 0 247.43-200.588 447.994-447.993 447.994zM689.962 347.906c10.755-10.752 10.755-28.177 0-38.934l-38.934-38.934c-10.756-10.759-28.179-10.759-38.934 0l-97.337 97.337-97.341-97.337c-10.754-10.759-28.178-10.759-38.934 0l-38.935 38.934c-10.755 10.756-10.755 28.182 0 38.934l97.341 97.339-97.341 97.337c-10.755 10.755-10.755 28.18 0 38.934l38.935 38.934c10.754 10.755 28.178 10.755 38.934 0l97.341-97.338 97.337 97.338c10.754 10.755 28.176 10.755 38.934 0l38.934-38.934c10.755-10.754 10.755-28.179 0-38.934l-97.339-97.337 97.339-97.339z" />
<glyph unicode="&#xe935;" glyph-name="ziyuan" d="M561.4 450.3c0-38.1-31-69.2-69.2-69.2h-422.6c-38 0-69.1 31-69.1 69.2v422.6c0 38 31.1 69.1 69.1 69.1h422.7c38.1 0 69.2-31.1 69.2-69.1v-422.6h-0.1zM1024.8 446.1c0-38-31.2-69.1-69.2-69.1h-219.4c-38.1 0-69.2 31-69.2 69.1v219.5c0 38.1 31 69.1 69.2 69.1h219.4c37.9 0 69.2-31 69.2-69.1v-219.5zM557.3 23.3c0-37.9-31-69.1-69.1-69.1h-219.4c-38 0-69.1 31-69.1 69.1v219.6c0 37.9 31.1 69.1 69.1 69.1h219.4c38 0 69.1-31 69.1-69.1v-219.6zM1020.7 23.3c0-37.9-31-69.1-69.2-69.1h-219.4c-37.9 0-69.1 31-69.1 69.1v219.6c0 37.9 31 69.1 69.1 69.1h219.5c38.1 0 69.2-31 69.2-69.1l-0.1-219.6z" />
</font>
</defs>
</svg>
